<svg width="34" height="34" viewBox="0 0 34 34" fill="none" xmlns="http://www.w3.org/2000/svg">
<circle cx="17" cy="17" r="13" fill="#967ADC"/>
<path d="M11.7257 10.5476L18.1782 17.0001L16.9998 18.1784L14.1282 15.3068C13.7593 15.9322 13.6047 16.661 13.688 17.3823C13.7712 18.1037 14.0877 18.7781 14.5894 19.3031C15.0911 19.828 15.7504 20.1748 16.4673 20.2908C17.1841 20.4067 17.9191 20.2853 18.5607 19.9452C19.2022 19.6051 19.7152 19.0648 20.0215 18.4064C20.3278 17.7481 20.4108 17.0077 20.2578 16.2979C20.1049 15.5881 19.7243 14.9476 19.174 14.4739C18.6237 14.0002 17.9337 13.7191 17.209 13.6734L15.7048 12.1693C16.8417 11.8644 18.0497 11.9704 19.1161 12.4685C20.1825 12.9667 21.039 13.8251 21.5348 14.8927C22.0305 15.9602 22.1338 17.1684 21.8263 18.3046C21.5189 19.4408 20.8205 20.4321 19.8541 21.104C18.8877 21.7758 17.7152 22.0853 16.5431 21.9777C15.3709 21.8702 14.2744 21.3526 13.4463 20.516C12.6183 19.6795 12.112 18.5776 12.0164 17.4045C11.9209 16.2313 12.2423 15.0621 12.924 14.1026L11.7332 12.9118C10.7394 14.1929 10.2466 15.7923 10.347 17.4105C10.4473 19.0288 11.134 20.555 12.2784 21.7035C13.4229 22.852 14.9467 23.5441 16.5646 23.6502C18.1824 23.7563 19.7836 23.2692 21.0682 22.28C22.3529 21.2908 23.233 19.8673 23.5438 18.276C23.8547 16.6847 23.575 15.0347 22.757 13.6347C21.9391 12.2348 20.639 11.1809 19.1001 10.6703C17.5613 10.1598 15.889 10.2275 14.3965 10.8609L13.1448 9.61009C14.3346 8.98844 15.6575 8.66474 16.9998 8.66676C21.6023 8.66676 25.3332 12.3976 25.3332 17.0001C25.3332 21.6026 21.6023 25.3334 16.9998 25.3334C12.3973 25.3334 8.66651 21.6026 8.66651 17.0001C8.66525 15.7649 8.93915 14.5449 9.46831 13.4288C9.99747 12.3127 10.7686 11.3284 11.7257 10.5476V10.5476Z" fill="white"/>
<rect x="2" y="2" width="30" height="30" rx="15" stroke="#FBFBFC" stroke-width="4"/>
</svg>
